<svg width="135" height="27" viewBox="0 0 135 27" fill="none" xmlns="http://www.w3.org/2000/svg">
<path d="M36.3117 6.13798H41.3256L38.5172 19.5258C38.0016 22.0615 37.0178 23.5127 35.5262 24.5413C34.0177 25.4212 32.2854 25.837 30.5441 25.7374C27.2278 25.7374 24.0464 24.342 23.7291 20.9531H28.7748C28.9335 21.7505 29.6634 22.205 30.7741 22.205C32.2735 22.205 32.9637 21.296 33.2732 19.8687L33.5746 18.3935H33.4636C33.0208 18.8827 32.4838 19.2763 31.8851 19.5504C31.2863 19.8245 30.6385 19.9735 29.9807 19.9883C27.0612 19.9883 24.7446 17.652 24.7922 14.2313C24.8557 10.2444 27.442 5.71536 31.7817 5.71536C32.6041 5.65969 33.4251 5.84184 34.1477 6.24032C34.8704 6.63872 35.4643 7.23686 35.8595 7.96395H35.9467L36.3117 6.13798ZM32.0038 16.2486C33.9317 16.2486 35.0027 14.016 35.0344 12.0944C35.0344 10.8106 34.5346 9.49489 33.059 9.49489C31.0438 9.49489 30.0204 11.7515 29.9887 13.689C29.9887 14.9968 30.4885 16.2486 31.9641 16.2486M88.2926 16.6793C88.2926 17.5324 87.5619 17.8753 86.602 17.8753C85.0154 17.8753 84.4841 17.0779 84.4761 15.9616H79.486C79.3987 20.1239 83.0957 21.1525 86.3804 21.1525C90.5768 21.1525 93.2983 19.3265 93.3542 15.6825C93.3542 12.7721 90.8864 11.887 88.4592 11.3209C86.5944 10.8903 85.7774 10.5793 85.785 9.86965C85.7935 9.15999 86.6265 8.87294 87.4435 8.87294C88.4668 8.87294 89.1645 9.23972 89.2364 10.1807H94.084C94.0282 6.70408 90.91 5.68349 87.7369 5.68349C83.8811 5.68349 80.8743 7.44562 80.8267 10.7786C80.8267 13.402 82.588 14.3668 85.2455 15.0526C86.9513 15.5071 88.3078 15.6506 88.2926 16.6793ZM125.365 8.29885H125.278C125.063 7.51362 124.586 6.82623 123.928 6.35048C123.27 5.87482 122.47 5.63946 121.66 5.68349C119.503 5.68349 118.186 6.75993 116.94 8.38657H116.853L117.313 6.13798H112.267L109.244 20.6661H114.521L116.107 12.8279C116.472 11.1215 117.337 9.9255 118.646 9.9255C119.955 9.9255 120.129 10.978 119.86 12.2618L118.114 20.6661H123.39L124.977 12.8279C125.342 11.0099 126.207 9.9255 127.515 9.9255C128.824 9.9255 128.999 10.9222 128.73 12.2618L126.984 20.6661H132.26L134.148 12.0305C134.941 8.38657 133.728 5.65153 130.245 5.65153C129.276 5.64753 128.322 5.88774 127.469 6.35023C126.617 6.81271 125.894 7.48268 125.365 8.29885ZM0.967834 20.6661H6.41817L10.6309 0.293213H5.18847L0.967834 20.6661ZM17.3743 5.70737C21.0555 5.70737 24.5701 7.73267 24.5145 12.3176C24.4669 17.3331 21.0714 21.0887 15.8828 21.0887C12.3127 21.0887 8.74273 19.0953 8.80616 14.5343C8.89344 9.63845 12.2414 5.70737 17.3743 5.70737ZM16.0336 17.5324C18.3582 17.5324 19.207 14.1435 19.207 12.1501C19.207 10.7229 18.7707 9.32744 17.2395 9.32744C14.9388 9.32744 14.1534 12.9156 14.1534 14.7656C14.1534 16.2486 14.5659 17.5324 16.0653 17.5324M12.4476 0.293213L11.6543 4.36779H57.4228L58.2162 0.293213H12.4476ZM49.2592 5.70737C52.9404 5.70737 56.4549 7.73267 56.3994 12.3176C56.3518 17.3331 52.9483 21.0887 47.7598 21.0887C44.1897 21.0887 40.6196 19.0953 40.691 14.5343C40.8021 9.63845 44.15 5.70737 49.2592 5.70737ZM47.9423 17.5324C50.2668 17.5324 51.1156 14.1435 51.1156 12.1501C51.1156 10.7229 50.6714 9.32744 49.1402 9.32744C46.8474 9.32744 46.054 12.9156 46.054 14.7656C46.054 16.2486 46.4666 17.5324 47.974 17.5324M60.0885 0.293213L59.2951 4.36779H64.563L65.3564 0.293213H60.0885ZM55.8679 20.6661H61.1436L64.1663 6.13798H58.8587L55.8679 20.6661ZM72.7028 21.1525C71.8631 21.2124 71.0234 21.036 70.2778 20.6431C69.5323 20.2501 68.9105 19.6561 68.4821 18.9278H68.3949L66.8082 26.2796H61.4689L65.753 6.13798H70.767L70.3704 8.07556C70.8939 7.35986 71.5722 6.77276 72.3541 6.35839C73.1359 5.9441 74.0011 5.71332 74.8845 5.68349C78.0579 5.68349 79.9223 8.41845 79.8668 11.9748C79.7953 16.448 77.4867 21.1525 72.671 21.1525H72.7028ZM72.4965 9.79791C70.4576 9.79791 69.2041 12.4213 69.1724 14.4387C69.1724 15.842 69.6643 17.4048 71.3382 17.4048C73.52 17.4048 74.4164 14.5024 74.4402 12.5647C74.4402 11.2491 74.0594 9.79791 72.4965 9.79791ZM103.001 18.3776H103.088L102.628 20.6821H107.642L110.665 6.15388H105.397L103.715 14.2711C103.374 15.9536 102.342 16.8387 101.042 16.8387C99.7401 16.8387 99.4543 15.6107 99.7165 14.327L101.422 6.15388H96.1543L94.2895 15.1244C93.4962 19.0315 95.3052 21.1366 98.3363 21.1366C99.2877 21.1272 100.221 20.8658 101.039 20.3786C101.858 19.8914 102.535 19.1957 103.001 18.3617V18.3776ZM131.3 26.3514L132.093 22.2768H69.5294L68.736 26.3514H131.3Z" fill="white"/>
</svg>
