<svg width="40" height="40" viewBox="0 0 40 40" fill="none" xmlns="http://www.w3.org/2000/svg">
<g clip-path="url(#clip0_9_93)">
<g clip-path="url(#clip1_9_93)">
<g clip-path="url(#clip2_9_93)">
<path d="M33.5703 14.2852C33.2227 14.2852 32.8867 14.3359 32.5664 14.4297C31.3164 8.64063 26.1562 4.28516 20 4.28516C13.8437 4.28516 8.67969 8.64063 7.43359 14.4297C7.11328 14.3359 6.77734 14.2852 6.42969 14.2852C4.46094 14.2852 2.85938 15.8867 2.85938 17.8555V22.1406C2.85938 24.1094 4.46094 25.7109 6.42969 25.7109C8.39844 25.7109 10 24.1094 10 22.1406V17.1406C10 11.625 14.4844 7.14063 20 7.14063C25.5156 7.14063 30 11.625 30 17.1406V21.4258C30 25.0234 28.0898 28.2773 25.0352 30.0586C24.3867 29.1562 23.3281 28.5703 22.1367 28.5703H17.8516C15.8828 28.5703 14.2812 30.1719 14.2812 32.1406C14.2812 34.1094 15.8828 35.7109 17.8516 35.7109H22.1367C23.8125 35.7109 25.2227 34.5469 25.6055 32.9883C28.793 31.4414 31.1445 28.7031 32.2148 25.4453C32.6328 25.6172 33.0898 25.7109 33.5703 25.7109C35.5391 25.7109 37.1406 24.1094 37.1406 22.1406V17.8555C37.1445 15.8867 35.5391 14.2852 33.5703 14.2852ZM7.14453 22.1445C7.14453 22.5391 6.82422 22.8594 6.42969 22.8594C6.03516 22.8594 5.71484 22.5391 5.71484 22.1445V17.8555C5.71484 17.4609 6.03516 17.1406 6.42969 17.1406C6.82422 17.1406 7.14453 17.4609 7.14453 17.8555V22.1445ZM22.1367 32.8594H17.8516C17.457 32.8594 17.1367 32.5391 17.1367 32.1445C17.1367 31.75 17.457 31.4297 17.8516 31.4297H22.1367C22.5312 31.4297 22.8516 31.75 22.8516 32.1445C22.8516 32.5391 22.5312 32.8594 22.1367 32.8594ZM34.2852 22.1445C34.2852 22.5391 33.9648 22.8594 33.5703 22.8594C33.1758 22.8594 32.8555 22.5391 32.8555 22.1445V17.8594C32.8555 17.4648 33.1758 17.1445 33.5703 17.1445C33.9648 17.1445 34.2852 17.4648 34.2852 17.8594V22.1445Z" fill="#1E222D"/>
<path d="M20 25.7148C23.1524 25.7148 25.7149 23.1523 25.7149 20H22.8594C22.8594 21.5742 21.5781 22.8555 20.0039 22.8555C18.4297 22.8555 17.1485 21.5742 17.1485 20H14.293C14.2852 23.1523 16.8477 25.7148 20 25.7148Z" fill="#1E222D"/>
</g>
</g>
</g>
<defs>
<clipPath id="clip0_9_93">
<rect width="40" height="40" fill="white"/>
</clipPath>
<clipPath id="clip1_9_93">
<rect width="40" height="40" fill="white"/>
</clipPath>
<clipPath id="clip2_9_93">
<rect width="40" height="40" fill="white"/>
</clipPath>
</defs>
</svg>
