<svg width="40" height="40" viewBox="0 0 40 40" fill="none" xmlns="http://www.w3.org/2000/svg">
<g clip-path="url(#clip0_3_662)">
<g clip-path="url(#clip1_3_662)">
<g clip-path="url(#clip2_3_662)">
<path d="M32.1523 7.83984C29.3672 5.05469 24.8359 5.05469 22.0508 7.83984L15.9922 13.8984C13.207 16.6836 13.207 21.2148 15.9922 24L17.4219 25.4297L19.4414 23.4102L18.0117 21.9805C16.3398 20.3086 16.3398 17.5898 18.0117 15.918L24.0742 9.85547C25.7461 8.18359 28.4648 8.18359 30.1367 9.85547C31.8086 11.5273 31.8086 14.2461 30.1367 15.918L27.3516 18.7031L29.3711 20.7227L32.1562 17.9375C34.9375 15.1562 34.9375 10.625 32.1523 7.83984Z" fill="#1E222D"/>
<path d="M22.5703 14.5664L20.5469 16.5859L21.9766 18.0156C23.6484 19.6875 23.6484 22.4063 21.9766 24.0781L15.9141 30.1367C14.2422 31.8086 11.5234 31.8086 9.85156 30.1367C8.17969 28.4648 8.17969 25.7461 9.85156 24.0742L12.1328 21.793L10.1172 19.7734L7.83594 22.0547C5.05078 24.8398 5.05078 29.3711 7.83594 32.1562C9.22656 33.5469 11.0586 34.2461 12.8867 34.2461C14.7148 34.2461 16.5469 33.5508 17.9375 32.1562L24 26.0938C26.7852 23.3086 26.7852 18.7773 24 15.9922L22.5703 14.5664Z" fill="#1E222D"/>
</g>
</g>
</g>
<defs>
<clipPath id="clip0_3_662">
<rect width="40" height="40" fill="white"/>
</clipPath>
<clipPath id="clip1_3_662">
<rect width="40" height="40" fill="white"/>
</clipPath>
<clipPath id="clip2_3_662">
<rect width="40" height="40" fill="white"/>
</clipPath>
</defs>
</svg>
