<svg width="40" height="40" viewBox="0 0 40 40" fill="none" xmlns="http://www.w3.org/2000/svg">
<g clip-path="url(#clip0_9_71)">
<g clip-path="url(#clip1_9_71)">
<g clip-path="url(#clip2_9_71)">
<g clip-path="url(#clip3_9_71)">
<path d="M20 33.5L7.65188 21.5265C6.8955 20.7931 6.26671 19.9006 5.82473 18.9418C5.2825 17.8196 5 16.5825 5 15.2968C5 10.4455 9.06895 6.5 14.072 6.5C14.6051 6.5 15.1428 6.54418 15.6713 6.63697L15.0881 9.81811C14.7555 9.76068 14.4137 9.72975 14.072 9.72975C10.9052 9.72975 8.3308 12.2261 8.3308 15.2968C8.3308 16.1053 8.50851 16.8785 8.8548 17.5987C9.14186 18.2261 9.53827 18.7828 10.003 19.2378L20 28.9271L29.9879 19.2423C30.4572 18.7872 30.849 18.2305 31.1224 17.6296C31.4824 16.8785 31.6601 16.1053 31.6601 15.2968C31.6601 12.2261 29.0857 9.72975 25.9189 9.72975C24.1191 9.72975 22.4058 10.5692 21.3351 11.9742L16.7877 17.5766L14.1677 15.5795L18.6923 10.0214C20.3554 7.83431 23.0711 6.50442 25.928 6.50442C30.931 6.50442 35 10.4499 35 15.3012C35 16.5869 34.7175 17.824 34.1616 18.9728C33.7378 19.9006 33.1045 20.7931 32.3481 21.5265L20 33.5Z" fill="#1E222D"/>
</g>
</g>
</g>
</g>
<defs>
<clipPath id="clip0_9_71">
<rect width="40" height="40" fill="white"/>
</clipPath>
<clipPath id="clip1_9_71">
<rect width="40" height="40" fill="white"/>
</clipPath>
<clipPath id="clip2_9_71">
<rect width="40" height="40" fill="white"/>
</clipPath>
<clipPath id="clip3_9_71">
<rect width="40" height="40" fill="white"/>
</clipPath>
</defs>
</svg>
